#!OML:ASF E:\inclinewalkrobotboard\Project 1\Capture day 1\Session 1\subject1.ASF
:FULLY-SPECIFIED
:DEGREES
160
root 7.81963 16.5793 34.3882 -172.942 5.0509 177.229
lowerback -0.349417 3.61193 -3.45585
upperback 3.47879 4.98274 1.12211
thorax 3.39132 2.41214 3.23624
lowerneck -8.31758 0.368013 -4.12643
upperneck 28.5399 -2.64565 5.46993
head 10.5978 -1.87388 2.22251
rclavicle -8.54774e-015 7.95139e-015
rhumerus -30.4582 -33.2714 -73.8803
rradius 17.1458
rwrist 25.8793
rhand -17.3721 -37.6787
rfingers 7.12502
rthumb 8.87627 -67.4721
lclavicle -8.54774e-015 7.95139e-015
lhumerus -32.575 6.64894 86.2977
lradius 17.784
lwrist -25.8527
lhand -25.8665 -24.9272
lfingers 7.12502
lthumb 0.674727 5.05152
rfemur -1.59496 1.57733 21.894
rtibia 9.70165
rfoot -16.3712 0.607952
rtoes -29.3074
lfemur -51.8382 -6.55027 -17.0911
ltibia 49.8758
lfoot -22.1335 6.81501
ltoes -61.3442
161
root 7.82394 16.5726 34.3022 -173.01 5.20117 177.115
lowerback -0.2524 3.74815 -3.45855
upperback 3.65545 5.17828 1.06279
thorax 3.51053 2.51028 3.18204
lowerneck -8.11062 0.257337 -4.38149
upperneck 28.4781 -2.85572 5.73974
head 10.5518 -1.97429 2.34018
rclavicle -1.8487e-014 -6.36111e-015
rhumerus -29.0617 -31.2849 -75.603
rradius 17.8247
rwrist 23.9088
rhand -16.8525 -37.5661
rfingers 7.12502
rthumb 9.37762 -67.3375
lclavicle -1.8487e-014 -6.36111e-015
lhumerus -33.1855 7.01539 85.8487
lradius 17.6058
lwrist -25.848
lhand -25.845 -25.064
lfingers 7.12502
lthumb 0.695495 4.91462
rfemur -1.23871 1.62739 21.7462
rtibia 9.80643
rfoot -16.7049 0.557571
rtoes -29.9539
lfemur -52.4385 -6.94845 -16.6839
ltibia 47.47
lfoot -21.3826 6.86089
ltoes -61.5862
162
root 7.83522 16.5625 34.2222 -173.096 5.12377 177.028
lowerback 0.000716741 3.81742 -3.5799
upperback 3.81549 5.2812 1.08187
thorax 3.51486 2.56164 3.25886
lowerneck -8.49205 0.283126 -4.25735
upperneck 28.7926 -2.82234 5.62493
head 10.7413 -1.95269 2.2831
rclavicle -7.55382e-015 5.56597e-015
rhumerus -27.7302 -29.069 -77.2495
rradius 18.6846
rwrist 21.5543
rhand -16.2957 -37.5617
rfingers 7.12502
rthumb 9.91487 -67.3082
lclavicle -7.55382e-015 5.56597e-015
lhumerus -33.722 7.34472 85.5447
lradius 17.4168
lwrist -25.7404
lhand -25.5914 -24.7125
lfingers 7.12502
lthumb 0.940385 5.26517
rfemur -0.840596 1.75297 21.744
rtibia 9.88433
rfoot -17.0028 0.234091
rtoes -30.8626
lfemur -53.0215 -7.30134 -16.2777
ltibia 45.1598
lfoot -20.2636 6.6669
ltoes -61.802
163
root 7.84482 16.5537 34.1332 -173.235 5.10148 176.951
lowerback 0.268126 3.93189 -3.66185
upperback 3.96682 5.4436 1.07542
thorax 3.5028 2.64488 3.28622
lowerneck -8.7823 0.34739 -3.88131
upperneck 29.0822 -2.72288 5.2956
head 10.8959 -1.89969 2.11132
rclavicle -8.34896e-015 -3.18055e-015
rhumerus -26.5532 -27.0438 -78.7617
rradius 19.6089
rwrist 19.0122
rhand -16.2689 -37.3254
rfingers 7.12502
rthumb 9.94077 -67.0707
lclavicle -8.34896e-015 -3.18055e-015
lhumerus -34.4068 7.55974 85.1912
lradius 17.276
lwrist -25.8784
lhand -25.4342 -24.3896
lfingers 7.12502
lthumb 1.09219 5.58731
rfemur -0.376327 1.97625 21.7439
rtibia 9.99929
rfoot -17.2854 -0.0743393
rtoes -31.4718
lfemur -53.3909 -7.46319 -15.9442
ltibia 42.8723
lfoot -19.1755 6.39125
ltoes -62.0522
164
root 7.85209 16.5411 34.0341 -173.288 5.11996 176.869
lowerback 0.452572 4.11524 -3.62321
upperback 4.05515 5.69564 0.942686
thorax 3.48769 2.77716 3.12099
lowerneck -9.00128 0.359948 -3.43298
upperneck 29.3841 -2.78696 5.13297
head 11.0532 -1.90111 1.96708
rclavicle 1.0138e-014 -3.4191e-014
rhumerus -25.613 -25.4725 -80.1114
rradius 20.506
rwrist 16.5534
rhand -17.074 -36.0103
rfingers 7.12502
rthumb 9.16396 -65.7912
lclavicle 1.0138e-014 -3.4191e-014
lhumerus -35.1169 7.49662 84.6993
lradius 17.0252
lwrist -26.1909
lhand -25.5784 -24.6579
lfingers 7.12502
lthumb 0.952929 5.3197
rfemur 0.00688042 2.14825 21.7032
rtibia 10.1611
rfoot -17.5986 -0.346845
rtoes -32.3098
lfemur -53.7748 -7.57269 -15.643
ltibia 40.7682
lfoot -18.3392 6.09808
ltoes -62.3709
165
root 7.85975 16.5245 33.9287 -173.258 5.19389 176.892
lowerback 0.574988 4.2362 -3.58288
upperback 4.13207 5.86297 0.890814
thorax 3.49535 2.86499 3.04106
lowerneck -9.10518 0.334834 -3.43665
upperneck 29.6317 -2.9033 5.23124
head 11.1773 -1.9513 1.99012
rclavicle -3.1408e-014 -1.59028e-014
rhumerus -24.6911 -23.7705 -81.3179
rradius 21.2298
rwrist 13.945
rhand -17.6548 -35.7345
rfingers 7.12502
rthumb 8.60344 -65.5392
lclavicle -3.1408e-014 -1.59028e-014
lhumerus -35.7606 7.9368 84.087
lradius 16.6546
lwrist -26.7929
lhand -25.8605 -25.331
lfingers 7.12502
lthumb 0.680467 4.64769
rfemur 0.314599 2.29287 21.7742
rtibia 10.3233
rfoot -17.9355 -0.635113
rtoes -33.8054
lfemur -54.2214 -7.58749 -15.2427
ltibia 38.9585
lfoot -17.723 5.85912
ltoes -62.4529
166
root 7.8637 16.5105 33.8133 -173.266 5.2324 176.941
lowerback 0.682202 4.27385 -3.58709
upperback 4.23586 5.92099 0.915501
thorax 3.53613 2.89539 3.06581
lowerneck -8.99801 0.321592 -3.5923
upperneck 29.6841 -2.94498 5.31401
head 11.1806 -1.98578 2.04284
rclavicle -1.19271e-015 1.35174e-014
rhumerus -23.798 -21.977 -82.3208
rradius 22.298
rwrist 12.7959
rhand -16.5048 -36.627
rfingers 7.12502
rthumb 9.71318 -66.383
lclavicle -1.19271e-015 1.35174e-014
lhumerus -36.5025 8.63964 83.4494
lradius 16.3286
lwrist -27.531
lhand -25.8199 -25.1315
lfingers 7.12502
lthumb 0.719659 4.84703
rfemur 0.772437 2.36945 21.8264
rtibia 10.3522
rfoot -18.4198 -0.766544
rtoes -34.6421
lfemur -54.5451 -7.6938 -14.8684
ltibia 37.3911
lfoot -17.2554 5.88794
ltoes -62.3004
167
root 7.86202 16.4961 33.6805 -173.304 5.37409 176.893
lowerback 0.702304 4.3406 -3.61317
upperback 4.32852 6.02137 0.859036
thorax 3.61763 2.9455 3.02683
lowerneck -8.82906 0.314288 -3.69283
upperneck 29.6784 -3.0092 5.46957
head 11.1509 -2.01734 2.10963
rclavicle -1.61016e-014 -1.51076e-014
rhumerus -23.0306 -20.3535 -83.2424
rradius 23.1897
rwrist 11.5162
rhand -15.7289 -37.1882
rfingers 7.12502
rthumb 10.4617 -66.9078
lclavicle -1.61016e-014 -1.51076e-014
lhumerus -37.3259 9.29628 82.6974
lradius 15.947
lwrist -28.4413
lhand -24.9893 -23.4445
lfingers 7.12502
lthumb 1.52194 6.52977
rfemur 1.35487 2.3405 21.6851
rtibia 10.3052
rfoot -18.936 -0.424846
rtoes -34.6777
lfemur -54.7303 -7.78152 -14.6773
ltibia 36.1577
lfoot -16.5481 6.22441
ltoes -62.0632
168
root 7.86213 16.4766 33.5562 -173.2 5.17534 176.896
lowerback 0.812842 4.27725 -3.60305
upperback 4.34244 5.93666 0.837475
thorax 3.57951 2.90631 2.98959
lowerneck -8.82998 0.326555 -3.8879
upperneck 29.8474 -3.06535 5.67835
head 11.2244 -2.05195 2.21415
rclavicle 3.47873e-014 3.97569e-015
rhumerus -22.3869 -18.9284 -84.0512
rradius 23.9852
rwrist 10.3963
rhand -15.4265 -37.5156
rfingers 7.12502
rthumb 10.7534 -67.2203
lclavicle 3.47873e-014 3.97569e-015
lhumerus -38.0775 10.4472 81.6769
lradius 15.322
lwrist -29.9528
lhand -24.544 -22.8004
lfingers 7.12502
lthumb 1.95202 7.17043
rfemur 1.78746 2.25419 21.6513
rtibia 10.256
rfoot -19.2522 -0.25621
rtoes -34.5286
lfemur -55.321 -7.91888 -14.5891
ltibia 35.6417
lfoot -15.5407 6.43552
ltoes -61.9906
169
root 7.86218 16.4563 33.4303 -172.999 5.14868 177.008
lowerback 0.873237 4.2486 -3.59224
upperback 4.36567 5.8986 0.87216
thorax 3.57004 2.88843 3.01498
lowerneck -9.05285 0.398282 -3.97105
upperneck 30.2197 -2.98794 5.61644
head 11.4095 -2.04247 2.21694
rclavicle -1.27222e-014 2.14687e-014
rhumerus -21.7182 -17.4602 -84.7968
rradius 24.7485
rwrist 9.32286
rhand -15.7068 -36.8366
rfingers 7.12502
rthumb 10.483 -66.5552
lclavicle -1.27222e-014 2.14687e-014
lhumerus -38.7812 12.2145 80.3463
lradius 14.5821
lwrist -32.0282
lhand -24.7174 -23.3923
lfingers 7.12502
lthumb 1.78448 6.57996
rfemur 2.03368 2.35174 21.752
rtibia 10.3673
rfoot -19.4745 -0.169655
rtoes -33.9347
lfemur -55.9329 -7.76205 -14.4502
ltibia 35.3922
lfoot -14.7791 6.68257
ltoes -62.3882
170
root 7.8636 16.4375 33.2918 -172.905 5.56919 177.156
lowerback 0.986858 4.40088 -3.63829
upperback 4.42836 6.10645 0.872678
thorax 3.5517 2.99321 3.03537
lowerneck -9.26122 0.42998 -3.97762
upperneck 30.5548 -2.97401 5.53881
head 11.5817 -2.05401 2.19242
rclavicle -4.87022e-014 1.74931e-014
rhumerus -20.9068 -16.2216 -85.5187
rradius 25.1858
rwrist 8.3337
rhand -15.7631 -36.4396
rfingers 7.12502
rthumb 10.4287 -66.1609
lclavicle -4.87022e-014 1.74931e-014
lhumerus -39.4655 14.132 78.7876
lradius 13.8803
lwrist -34.2451
lhand -24.6947 -23.5383
lfingers 7.12502
lthumb 1.80642 6.43379
rfemur 2.34516 2.6276 21.8862
rtibia 10.6291
rfoot -19.688 -0.000722971
rtoes -33.5129
lfemur -56.1497 -7.17554 -14.3396
ltibia 35.2642
lfoot -14.5611 6.91181
ltoes -62.3195
171
root 7.86415 16.4143 33.1528 -172.655 5.74787 177.271
lowerback 1.06472 4.52679 -3.64608
upperback 4.41448 6.2739 0.792894
thorax 3.48891 3.07977 2.9505
lowerneck -9.33692 0.371585 -4.09945
upperneck 30.7318 -3.16973 5.81835
head 11.6852 -2.13203 2.29425
rclavicle 1.03368e-014 -7.95139e-015
rhumerus -20.1357 -15.2924 -86.2014
rradius 25.4323
rwrist 7.49407
rhand -15.3674 -36.6482
rfingers 7.12502
rthumb 10.8104 -66.35
lclavicle 1.03368e-014 -7.95139e-015
lhumerus -40.0568 16.5562 76.6654
lradius 12.8985
lwrist -37.2742
lhand -24.87 -22.8025
lfingers 7.12502
lthumb 1.6371 7.17093
rfemur 2.52029 2.74551 21.9742
rtibia 10.852
rfoot -19.8366 -0.0435476
rtoes -33.8286
lfemur -56.7062 -6.77896 -14.313
ltibia 35.6746
lfoot -14.6275 6.94293
ltoes -62.3531
172
root 7.85802 16.3986 32.9917 -172.601 6.0838 177.28
lowerback 1.23162 4.68084 -3.67123
upperback 4.45376 6.48472 0.646531
thorax 3.43494 3.19029 2.80168
lowerneck -9.28313 0.321201 -4.2371
upperneck 30.7898 -3.3604 6.15858
head 11.7167 -2.20327 2.42184
rclavicle -1.68967e-014 -1.35174e-014
rhumerus -19.5733 -14.4704 -86.7905
rradius 25.7566
rwrist 7.07283
rhand -14.9129 -36.5267
rfingers 7.12502
rthumb 11.2487 -66.2051
lclavicle -1.68967e-014 -1.35174e-014
lhumerus -40.8363 19.3604 74.1332
lradius 11.9186
lwrist -40.6146
lhand -24.9942 -20.8426
lfingers 7.12502
lthumb 1.51715 9.13173
rfemur 2.97215 2.79913 21.8623
rtibia 11.0193
rfoot -19.8552 0.187536
rtoes -34.0494
lfemur -56.8028 -6.44456 -14.4143
ltibia 36.0374
lfoot -14.5503 7.11117
ltoes -62.4033
173
root 7.85147 16.3842 32.835 -172.372 6.11254 177.257
lowerback 1.51854 4.67952 -3.74202
upperback 4.36498 6.47079 0.506475
thorax 3.19095 3.19005 2.66423
lowerneck -9.1953 0.321755 -4.29157
upperneck 30.7951 -3.40692 6.27446
head 11.7063 -2.22347 2.46879
rclavicle -3.4191e-014 0
rhumerus -19.145 -13.7585 -87.3213
rradius 26.0868
rwrist 7.07792
rhand -14.7887 -36.1093
rfingers 7.12502
rthumb 11.3686 -65.7811
lclavicle -3.4191e-014 0
lhumerus -41.8354 21.703 71.8483
lradius 11.3052
lwrist -43.023
lhand -24.8657 -19.071
lfingers 7.12502
lthumb 1.64123 10.9025
rfemur 3.22266 2.83095 21.7582
rtibia 11.2298
rfoot -19.7349 0.393185
rtoes -33.2506
lfemur -57.1676 -6.43448 -14.5055
ltibia 36.6966
lfoot -14.412 7.25388
ltoes -62.2988
